<?xml version="1.0" encoding="utf-8"?>
<!-- Generator: Adobe Illustrator 20.0.0, SVG Export Plug-In . SVG Version: 6.00 Build 0)  -->
<svg version="1.1" xmlns="http://www.w3.org/2000/svg" xmlns:xlink="http://www.w3.org/1999/xlink" x="0px" y="0px"
	 viewBox="0 0 696 540" style="enable-background:new 0 0 696 540;" xml:space="preserve">
<style type="text/css">
	.st0{fill:#E30010;}
</style>
<g id="moto">
</g>
<g id="shiro">
</g>
<g id="moji">
</g>
<g id="レイヤー_4">
</g>
<g id="レイヤー_5">
</g>
<g id="レイヤー_6">
	<path class="st0" d="M372.3,347.7c0,0,44.1-18.7,43.5-67.9c-0.6-49.2-21.5-45.2-26.6-76.9c0,0-8.5,15.3-2.3,28.8
		c0,0-57.1-50.3-42.4-88.2c0,0-33.4,12.4-40.7,51.5c-7.4,39,13,79.2,13,79.2s-19.8-11.9-21.5-30.5c0,0-23.2,31.1-16.4,58.3
		c6.8,27.1,33.4,44.7,33.4,44.7s-1.7-22.1,7.9-36.2c0,0,1.7,18.1,14.1,28.3c0,0-5.7-15.3-1.1-31.7c4.5-16.4,21.5-28.3,16.4-50.3
		c0,0,25.4,18.1,27.1,47.5C378.6,333.5,372.3,347.7,372.3,347.7z"/>
</g>
</svg>
